<svg id="Layer_1" data-name="Layer 1" xmlns="http://www.w3.org/2000/svg" viewBox="0 0 120 30"><defs><style>.cls-1{fill:#fff;}.cls-2{opacity:0.9;}.cls-3{fill:#ecb244;}.cls-4{fill:#376eae;}.cls-5{fill:#449552;}.cls-6{fill:#d03b34;}</style></defs><path className="cls-1" d="M42.89,23.24V8.56h6.45a4.47,4.47,0,0,1,4.79,4.6,4.48,4.48,0,0,1-4.79,4.6H45.46v5.48Zm8.6-10.08A2.31,2.31,0,0,0,49,10.83H45.46v4.66H49A2.31,2.31,0,0,0,51.49,13.16Z"/><path className="cls-1" d="M56.2,23.24V12.61h2.31v1.56A4.54,4.54,0,0,1,62,12.37v2.29a3,3,0,0,0-.72-.07A3.66,3.66,0,0,0,58.51,16v7.24Z"/><path className="cls-1" d="M63.17,17.91a5.47,5.47,0,1,1,10.94,0,5.47,5.47,0,1,1-10.94,0Zm8.54,0c0-1.87-1.1-3.52-3.08-3.52S65.57,16,65.57,17.91s1.1,3.54,3.06,3.54S71.71,19.8,71.71,17.91Z"/><path className="cls-1" d="M72.72,26.78l.68-1.72a2,2,0,0,0,1.48.6c.9,0,1.56-.55,1.56-1.81V12.61h2.31V23.85c0,2.27-1.19,3.7-3.52,3.7A3.61,3.61,0,0,1,72.72,26.78Zm3.43-16.9a1.44,1.44,0,0,1,1.43-1.43,1.43,1.43,0,1,1,0,2.86A1.44,1.44,0,0,1,76.15,9.88Z"/><path className="cls-1" d="M81.08,17.91a5.37,5.37,0,0,1,5.39-5.56c3.19,0,5.24,2.44,5.24,5.78v.55H83.5a3.22,3.22,0,0,0,3.39,2.93,4.47,4.47,0,0,0,3-1.17L91,22a6.21,6.21,0,0,1-4.31,1.54A5.34,5.34,0,0,1,81.08,17.91Zm5.39-3.67a2.93,2.93,0,0,0-3,2.81h6A2.84,2.84,0,0,0,86.47,14.24Z"/><path className="cls-1" d="M93.34,17.91a5.33,5.33,0,0,1,5.5-5.56,4.78,4.78,0,0,1,4.07,1.89l-1.52,1.41A2.84,2.84,0,0,0,99,14.39a3.21,3.21,0,0,0-3.22,3.52A3.23,3.23,0,0,0,99,21.45a2.9,2.9,0,0,0,2.44-1.25l1.52,1.41a4.78,4.78,0,0,1-4.07,1.89A5.33,5.33,0,0,1,93.34,17.91Z"/><path className="cls-1" d="M105.39,20.77V14.63h-1.76v-2h1.76V9.7h2.31v2.91h2.16v2H107.7V20.2c0,.73.35,1.25,1,1.25a1.51,1.51,0,0,0,1-.37l.55,1.74a3.08,3.08,0,0,1-2.18.68A2.45,2.45,0,0,1,105.39,20.77Z"/><path className="cls-1" d="M111,21.85l1.06-1.67a5.48,5.48,0,0,0,3.61,1.49c1.38,0,2.09-.59,2.09-1.43,0-2.09-6.43-.59-6.43-4.66,0-1.74,1.5-3.23,4.18-3.23a6.07,6.07,0,0,1,4.14,1.49l-1,1.63a4.26,4.26,0,0,0-3.14-1.28c-1.21,0-2,.55-2,1.3,0,1.89,6.42.49,6.42,4.71,0,1.87-1.56,3.3-4.42,3.3A6.46,6.46,0,0,1,111,21.85Z"/><g className="cls-2"><path className="cls-3" d="M14.27,30a1,1,0,0,1-.76-.32L6.59,22.77a1.08,1.08,0,1,1,1.53-1.53L15,28.15a1.09,1.09,0,0,1,0,1.53A1.05,1.05,0,0,1,14.27,30Z"/></g><g className="cls-2"><path className="cls-3" d="M14.28,17.44a1.07,1.07,0,0,1-.77-.32l-6.92-6.9A1.08,1.08,0,1,1,8.12,8.69L15,15.59a1.08,1.08,0,0,1,0,1.53A1,1,0,0,1,14.28,17.44Z"/></g><g className="cls-2"><path className="cls-3" d="M14.27,23.73a1.07,1.07,0,0,1-.76-.32l-6.9-6.9A1.08,1.08,0,0,1,8.13,15L15,21.88a1.09,1.09,0,0,1-.77,1.85Z"/></g><g className="cls-2"><path className="cls-4" d="M22.33,21.94a1.09,1.09,0,0,1-.76-1.85l13.5-13.5A1.08,1.08,0,1,1,36.6,8.12L23.1,21.62A1.09,1.09,0,0,1,22.33,21.94Z"/></g><g className="cls-2"><path className="cls-4" d="M22.33,15.66a1.07,1.07,0,0,1-.76-.31,1.09,1.09,0,0,1,0-1.53l9.6-9.6L29.56,2.61,23.1,9.07a1.08,1.08,0,0,1-1.53-1.53L28.8.32A1.09,1.09,0,0,1,29.56,0a1.07,1.07,0,0,1,.76.32l3.14,3.13a1.09,1.09,0,0,1,0,1.53L23.1,15.35A1.08,1.08,0,0,1,22.33,15.66Z"/></g><g className="cls-2"><path className="cls-5" d="M14.28,17.44a1.05,1.05,0,0,1-.77-.32,1.09,1.09,0,0,1,0-1.53l8.06-8A1.08,1.08,0,1,1,23.1,9.07l-8,8.05A1.07,1.07,0,0,1,14.28,17.44Z"/></g><g className="cls-2"><path className="cls-5" d="M14.27,23.73a1.07,1.07,0,0,1-.76-.32,1.09,1.09,0,0,1,0-1.53l8.06-8.06a1.08,1.08,0,0,1,1.53,1.53L15,23.41A1.09,1.09,0,0,1,14.27,23.73Z"/></g><g className="cls-2"><path className="cls-5" d="M14.27,30a1,1,0,0,1-.76-.32,1.09,1.09,0,0,1,0-1.53l8.06-8.06a1.08,1.08,0,0,1,1.53,1.53L15,29.68A1.05,1.05,0,0,1,14.27,30Z"/></g><g className="cls-2"><path className="cls-6" d="M7.36,23.08a1.08,1.08,0,0,1-.77-.31L.32,16.49A1.09,1.09,0,0,1,0,15.73,1.12,1.12,0,0,1,.32,15L6.59,8.69a1.08,1.08,0,0,1,1.53,1.53L2.61,15.73l5.51,5.51a1.09,1.09,0,0,1,0,1.53A1.07,1.07,0,0,1,7.36,23.08Z"/></g></svg>